<svg width="501" height="500" viewBox="0 0 501 500" fill="none" xmlns="http://www.w3.org/2000/svg">
<rect x="0.437012" width="500" height="500" fill="#DBD8D8"/>
<path d="M250.903 311.678C242.7 311.678 235.388 310.269 228.966 307.452C222.586 304.634 217.511 300.719 213.74 295.706C210.012 290.652 207.982 284.79 207.65 278.119H223.311C223.642 282.221 225.051 285.763 227.537 288.746C230.022 291.688 233.275 293.966 237.293 295.582C241.312 297.198 245.766 298.006 250.655 298.006C256.123 298.006 260.971 297.053 265.196 295.147C269.422 293.241 272.737 290.59 275.14 287.192C277.543 283.795 278.744 279.859 278.744 275.385C278.744 270.703 277.584 266.581 275.264 263.018C272.944 259.414 269.547 256.596 265.072 254.566C260.598 252.536 255.129 251.521 248.666 251.521H238.474V237.849H248.666C253.72 237.849 258.153 236.938 261.965 235.115C265.818 233.292 268.822 230.723 270.976 227.409C273.172 224.095 274.27 220.2 274.27 215.726C274.27 211.417 273.317 207.668 271.411 204.478C269.505 201.288 266.812 198.802 263.332 197.02C259.893 195.239 255.833 194.348 251.152 194.348C246.76 194.348 242.617 195.156 238.723 196.772C234.87 198.346 231.721 200.645 229.277 203.67C226.832 206.653 225.507 210.257 225.299 214.483H210.385C210.633 207.813 212.643 201.971 216.413 196.958C220.183 191.904 225.113 187.968 231.203 185.151C237.335 182.333 244.067 180.925 251.4 180.925C259.272 180.925 266.025 182.52 271.659 185.71C277.294 188.859 281.623 193.022 284.648 198.201C287.672 203.38 289.184 208.973 289.184 214.98C289.184 222.147 287.299 228.258 283.529 233.313C279.8 238.367 274.725 241.868 268.304 243.815V244.81C276.341 246.135 282.618 249.553 287.134 255.064C291.649 260.532 293.907 267.306 293.907 275.385C293.907 282.304 292.022 288.518 288.252 294.028C284.523 299.497 279.428 303.806 272.965 306.955C266.501 310.103 259.148 311.678 250.903 311.678Z" fill="white"/>
</svg>
