<svg width="1920" height="1080" viewBox="0 0 1920 1080" fill="none" xmlns="http://www.w3.org/2000/svg">
<rect width="1920" height="1080" fill="#FF7A00"/>
<path d="M960.051 678.113C941.373 678.113 924.87 674.803 910.544 668.184C896.308 661.475 885.201 652.271 877.222 640.575C869.243 628.787 865.298 615.368 865.389 600.316C865.298 588.529 867.611 577.648 872.326 567.674C877.04 557.609 883.478 549.222 891.639 542.512C899.89 535.712 909.093 531.405 919.248 529.592V527.96C905.92 524.514 895.311 517.033 887.422 505.518C879.534 493.912 875.635 480.719 875.726 465.94C875.635 451.795 879.217 439.146 886.47 427.993C893.724 416.841 903.698 408.045 916.392 401.608C929.177 395.17 943.73 391.951 960.051 391.951C976.191 391.951 990.608 395.17 1003.3 401.608C1016 408.045 1025.97 416.841 1033.22 427.993C1040.57 439.146 1044.29 451.795 1044.38 465.94C1044.29 480.719 1040.25 493.912 1032.27 505.518C1024.38 517.033 1013.91 524.514 1000.85 527.96V529.592C1010.92 531.405 1019.99 535.712 1028.06 542.512C1036.13 549.222 1042.56 557.609 1047.37 567.674C1052.17 577.648 1054.62 588.529 1054.71 600.316C1054.62 615.368 1050.54 628.787 1042.47 640.575C1034.49 652.271 1023.39 661.475 1009.15 668.184C995.005 674.803 978.639 678.113 960.051 678.113ZM960.051 648.191C972.654 648.191 983.535 646.151 992.693 642.071C1001.85 637.99 1008.92 632.233 1013.91 624.798C1018.9 617.362 1021.44 608.658 1021.53 598.684C1021.44 588.166 1018.72 578.872 1013.37 570.802C1008.02 562.732 1000.72 556.385 991.469 551.761C982.311 547.137 971.838 544.825 960.051 544.825C948.173 544.825 937.564 547.137 928.225 551.761C918.976 556.385 911.677 562.732 906.328 570.802C901.069 578.872 898.484 588.166 898.575 598.684C898.484 608.658 900.887 617.362 905.784 624.798C910.771 632.233 917.888 637.99 927.137 642.071C936.386 646.151 947.357 648.191 960.051 648.191ZM960.051 515.991C970.025 515.991 978.866 513.996 986.573 510.006C994.37 506.017 1000.49 500.44 1004.93 493.277C1009.38 486.114 1011.64 477.727 1011.73 468.116C1011.64 458.686 1009.42 450.48 1005.07 443.498C1000.72 436.426 994.688 430.985 986.981 427.177C979.274 423.278 970.297 421.329 960.051 421.329C949.624 421.329 940.511 423.278 932.713 427.177C924.915 430.985 918.886 436.426 914.624 443.498C910.363 450.48 908.277 458.686 908.368 468.116C908.277 477.727 910.408 486.114 914.76 493.277C919.203 500.44 925.323 506.017 933.121 510.006C940.919 513.996 949.896 515.991 960.051 515.991Z" fill="white"/>
</svg>
