<svg width="501" height="500" viewBox="0 0 501 500" fill="none" xmlns="http://www.w3.org/2000/svg">
<rect x="0.4375" width="500" height="500" fill="#DBD8D8"/>
<path d="M251.269 311.678C246.049 311.595 240.828 310.6 235.608 308.695C230.388 306.789 225.624 303.578 221.315 299.062C217.006 294.505 213.547 288.353 210.937 280.605C208.327 272.816 207.022 263.039 207.022 251.273C207.022 240.004 208.078 230.019 210.191 221.319C212.304 212.577 215.37 205.223 219.388 199.257C223.407 193.25 228.254 188.693 233.93 185.586C239.648 182.478 246.09 180.925 253.257 180.925C260.383 180.925 266.722 182.354 272.274 185.213C277.867 188.03 282.424 191.966 285.946 197.02C289.467 202.075 291.746 207.896 292.781 214.483H277.618C276.21 208.766 273.475 204.022 269.415 200.252C265.355 196.482 259.969 194.597 253.257 194.597C243.397 194.597 235.629 198.885 229.953 207.461C224.319 216.037 221.481 228.072 221.439 243.567H222.433C224.754 240.045 227.509 237.042 230.699 234.556C233.93 232.029 237.493 230.081 241.388 228.714C245.282 227.347 249.404 226.663 253.754 226.663C261.046 226.663 267.716 228.486 273.765 232.132C279.814 235.737 284.661 240.729 288.307 247.109C291.953 253.448 293.776 260.719 293.776 268.922C293.776 276.794 292.015 284.002 288.493 290.548C284.972 297.053 280.021 302.232 273.641 306.085C267.302 309.896 259.845 311.76 251.269 311.678ZM251.269 298.006C256.489 298.006 261.17 296.701 265.313 294.091C269.498 291.48 272.792 287.98 275.194 283.588C277.639 279.196 278.861 274.308 278.861 268.922C278.861 263.66 277.68 258.875 275.319 254.566C272.999 250.216 269.788 246.757 265.686 244.188C261.626 241.62 256.986 240.335 251.766 240.335C247.83 240.335 244.163 241.122 240.766 242.697C237.369 244.23 234.386 246.343 231.817 249.036C229.29 251.728 227.301 254.815 225.851 258.295C224.401 261.734 223.676 265.359 223.676 269.17C223.676 274.225 224.857 278.948 227.219 283.339C229.622 287.731 232.895 291.273 237.038 293.966C241.222 296.659 245.966 298.006 251.269 298.006Z" fill="white"/>
</svg>
