<svg width="1920" height="1080" viewBox="0 0 1920 1080" fill="none" xmlns="http://www.w3.org/2000/svg">
<rect width="1920" height="1080" fill="#FF7A00"/>
<path d="M958.011 391.951C969.436 392.042 980.86 394.218 992.285 398.479C1003.71 402.741 1014.14 409.813 1023.57 419.697C1033 429.489 1040.57 442.864 1046.28 459.819C1051.99 476.775 1054.85 498.038 1054.85 523.607C1054.85 548.361 1052.49 570.349 1047.78 589.571C1043.15 608.703 1036.44 624.843 1027.65 637.99C1018.94 651.138 1008.33 661.112 995.821 667.912C983.399 674.713 969.345 678.113 953.659 678.113C938.063 678.113 924.145 675.03 911.904 668.864C899.754 662.608 889.78 653.949 881.982 642.887C874.275 631.734 869.333 618.813 867.157 604.124H900.343C903.335 616.909 909.274 627.472 918.16 635.814C927.137 644.065 938.97 648.191 953.659 648.191C975.148 648.191 992.104 638.806 1004.53 620.037C1017.04 601.268 1023.29 574.746 1023.29 540.472H1021.12C1016.04 548.089 1010.01 554.663 1003.03 560.194C996.048 565.725 988.295 569.986 979.772 572.978C971.249 575.971 962.182 577.467 952.571 577.467C936.612 577.467 921.969 573.522 908.64 565.634C895.402 557.655 884.793 546.729 876.814 532.856C868.925 518.892 864.981 502.934 864.981 484.981C864.981 467.934 868.789 452.339 876.406 438.194C884.113 423.958 894.903 412.624 908.776 404.192C922.739 395.759 939.151 391.679 958.011 391.951ZM958.011 421.873C946.586 421.873 936.295 424.729 927.137 430.441C918.07 436.063 910.861 443.68 905.512 453.291C900.253 462.811 897.623 473.375 897.623 484.981C897.623 496.587 900.162 507.15 905.24 516.671C910.408 526.101 917.435 533.627 926.321 539.248C935.297 544.779 945.498 547.545 956.923 547.545C965.537 547.545 973.561 545.867 980.996 542.512C988.431 539.067 994.915 534.397 1000.45 528.504C1006.07 522.519 1010.46 515.764 1013.64 508.238C1016.81 500.622 1018.4 492.688 1018.4 484.437C1018.4 473.556 1015.77 463.355 1010.51 453.835C1005.34 444.314 998.179 436.607 989.021 430.713C979.954 424.82 969.617 421.873 958.011 421.873Z" fill="white"/>
</svg>
