<svg width="1338" height="2071" viewBox="0 0 1338 2071" fill="none" xmlns="http://www.w3.org/2000/svg">
<rect x="0.4375" y="0.879883" width="1337.56" height="2070" fill="#DBD8D8"/>
<path d="M665.983 803.594C684.567 803.742 703.151 807.282 721.735 814.214C740.319 821.146 757.28 832.65 772.619 848.726C787.958 864.655 800.274 886.41 809.565 913.991C818.857 941.572 823.503 976.158 823.503 1017.75C823.503 1058.02 819.669 1093.78 811.999 1125.05C804.477 1156.17 793.563 1182.42 779.256 1203.81C765.097 1225.2 747.841 1241.42 727.487 1252.48C707.281 1263.54 684.42 1269.07 658.904 1269.07C633.536 1269.07 610.896 1264.06 590.984 1254.03C571.221 1243.85 554.997 1229.77 542.313 1211.77C529.776 1193.63 521.738 1172.62 518.198 1148.72H572.179C577.047 1169.52 586.707 1186.7 601.161 1200.27C615.763 1213.69 635.01 1220.4 658.904 1220.4C693.859 1220.4 721.44 1205.14 741.646 1174.61C762 1144.08 772.177 1100.94 772.177 1045.18H768.637C760.377 1057.57 750.569 1068.27 739.212 1077.26C727.856 1086.26 715.245 1093.19 701.381 1098.06C687.517 1102.93 672.768 1105.36 657.134 1105.36C631.176 1105.36 607.356 1098.94 585.675 1086.11C564.141 1073.13 546.885 1055.36 533.906 1032.79C521.074 1010.08 514.658 984.123 514.658 954.92C514.658 927.191 520.853 901.823 533.242 878.815C545.779 855.659 563.33 837.222 585.896 823.506C608.61 809.789 635.305 803.152 665.983 803.594ZM665.983 852.266C647.4 852.266 630.659 856.912 615.763 866.204C601.014 875.348 589.288 887.738 580.586 903.372C572.032 918.858 567.755 936.041 567.755 954.92C567.755 973.798 571.884 990.981 580.144 1006.47C588.551 1021.81 599.981 1034.05 614.435 1043.19C629.037 1052.19 645.63 1056.69 664.214 1056.69C678.225 1056.69 691.278 1053.96 703.372 1048.5C715.467 1042.9 726.012 1035.3 735.009 1025.72C744.153 1015.98 751.307 1004.99 756.469 992.751C761.631 980.362 764.212 967.456 764.212 954.035C764.212 936.336 759.935 919.743 751.38 904.257C742.973 888.77 731.322 876.233 716.425 866.647C701.676 857.06 684.862 852.266 665.983 852.266Z" fill="white"/>
</svg>
