<svg width="1338" height="2071" viewBox="0 0 1338 2071" fill="none" xmlns="http://www.w3.org/2000/svg">
<rect x="0.437012" y="0.879883" width="1337.56" height="2070" fill="#DBD8D8"/>
<path d="M668.195 1269.07C642.237 1269.07 618.86 1263.91 598.064 1253.59C577.267 1243.26 560.601 1229.1 548.064 1211.11C535.528 1193.12 528.669 1172.62 527.489 1149.61H580.586C582.651 1170.11 591.943 1187.07 608.462 1200.49C625.128 1213.77 645.039 1220.4 668.195 1220.4C686.779 1220.4 703.298 1216.05 717.752 1207.35C732.354 1198.65 743.784 1186.7 752.044 1171.51C760.451 1156.17 764.654 1138.84 764.654 1119.52C764.654 1099.76 760.303 1082.13 751.601 1066.64C743.047 1051.01 731.248 1038.69 716.203 1029.7C701.159 1020.7 683.977 1016.13 664.656 1015.98C650.791 1015.83 636.559 1017.97 621.957 1022.4C607.355 1026.67 595.335 1032.2 585.896 1038.99L534.569 1032.79L562.002 809.789H797.397V858.461H608.019L592.09 992.087H594.745C604.037 984.713 615.689 978.592 629.7 973.725C643.712 968.858 658.313 966.424 673.505 966.424C701.233 966.424 725.938 973.061 747.619 986.335C769.448 999.462 786.556 1017.46 798.946 1040.32C811.482 1063.18 817.751 1089.28 817.751 1118.63C817.751 1147.54 811.261 1173.35 798.282 1196.07C785.45 1218.63 767.751 1236.48 745.185 1249.61C722.619 1262.58 696.956 1269.07 668.195 1269.07Z" fill="white"/>
</svg>
