<svg width="501" height="500" viewBox="0 0 501 500" fill="none" xmlns="http://www.w3.org/2000/svg">
<rect x="0.437012" width="500" height="500" fill="#FF7A00"/>
<path d="M210.633 309.937V298.751L252.643 252.764C257.573 247.378 261.633 242.697 264.824 238.719C268.014 234.701 270.375 230.93 271.908 227.409C273.482 223.846 274.27 220.117 274.27 216.223C274.27 211.748 273.192 207.875 271.038 204.602C268.925 201.329 266.025 198.802 262.338 197.02C258.65 195.239 254.508 194.348 249.909 194.348C245.02 194.348 240.753 195.363 237.107 197.393C233.503 199.382 230.706 202.178 228.717 205.783C226.77 209.387 225.797 213.613 225.797 218.46H211.13C211.13 211.003 212.85 204.457 216.288 198.822C219.727 193.188 224.409 188.796 230.333 185.648C236.299 182.499 242.99 180.925 250.406 180.925C257.863 180.925 264.471 182.499 270.23 185.648C275.989 188.796 280.505 193.043 283.778 198.387C287.051 203.732 288.687 209.677 288.687 216.223C288.687 220.904 287.838 225.482 286.139 229.957C284.482 234.39 281.582 239.341 277.439 244.81C273.337 250.237 267.641 256.866 260.349 264.696L231.762 295.271V296.265H290.924V309.937H210.633Z" fill="white"/>
</svg>
