<svg width="501" height="500" viewBox="0 0 501 500" fill="none" xmlns="http://www.w3.org/2000/svg">
<rect x="0.437012" width="500" height="500" fill="#FF7A00"/>
<path d="M250.15 311.678C242.858 311.678 236.291 310.228 230.45 307.327C224.608 304.427 219.926 300.45 216.405 295.396C212.883 290.341 210.957 284.582 210.625 278.119H225.54C226.12 283.878 228.73 288.643 233.37 292.413C238.052 296.141 243.645 298.006 250.15 298.006C255.37 298.006 260.01 296.783 264.07 294.339C268.172 291.895 271.382 288.539 273.703 284.272C276.064 279.963 277.245 275.095 277.245 269.668C277.245 264.116 276.023 259.165 273.578 254.815C271.175 250.423 267.861 246.964 263.635 244.437C259.409 241.91 254.583 240.625 249.155 240.584C245.261 240.542 241.263 241.143 237.161 242.386C233.06 243.587 229.683 245.141 227.032 247.047L212.614 245.307L220.32 182.665H286.442V196.337H233.246L228.772 233.872H229.517C232.128 231.801 235.401 230.081 239.336 228.714C243.272 227.347 247.374 226.663 251.641 226.663C259.43 226.663 266.369 228.528 272.46 232.256C278.591 235.944 283.397 240.998 286.877 247.42C290.399 253.841 292.16 261.174 292.16 269.419C292.16 277.539 290.337 284.79 286.691 291.17C283.086 297.509 278.115 302.522 271.776 306.209C265.437 309.855 258.228 311.678 250.15 311.678Z" fill="white"/>
</svg>
