<svg width="501" height="500" viewBox="0 0 501 500" fill="none" xmlns="http://www.w3.org/2000/svg">
<rect x="0.437012" width="500" height="500" fill="#FF7A00"/>
<path d="M251.268 311.678C246.048 311.595 240.828 310.6 235.608 308.695C230.388 306.789 225.623 303.578 221.314 299.062C217.006 294.505 213.546 288.353 210.936 280.605C208.326 272.816 207.021 263.039 207.021 251.273C207.021 240.004 208.078 230.019 210.19 221.319C212.303 212.577 215.369 205.223 219.388 199.257C223.407 193.25 228.254 188.693 233.93 185.586C239.647 182.478 246.089 180.925 253.257 180.925C260.383 180.925 266.722 182.354 272.273 185.213C277.866 188.03 282.424 191.966 285.945 197.02C289.467 202.075 291.745 207.896 292.781 214.483H277.618C276.209 208.766 273.475 204.022 269.415 200.252C265.354 196.482 259.968 194.597 253.257 194.597C243.397 194.597 235.628 198.885 229.953 207.461C224.318 216.037 221.48 228.072 221.439 243.567H222.433C224.753 240.045 227.508 237.042 230.698 234.556C233.93 232.029 237.493 230.081 241.387 228.714C245.282 227.347 249.404 226.663 253.754 226.663C261.046 226.663 267.716 228.486 273.765 232.132C279.813 235.737 284.661 240.729 288.307 247.109C291.952 253.448 293.775 260.719 293.775 268.922C293.775 276.794 292.015 284.002 288.493 290.548C284.971 297.053 280.021 302.232 273.64 306.085C267.302 309.896 259.844 311.76 251.268 311.678ZM251.268 298.006C256.488 298.006 261.17 296.701 265.313 294.091C269.497 291.48 272.791 287.98 275.194 283.588C277.638 279.196 278.861 274.308 278.861 268.922C278.861 263.66 277.68 258.875 275.318 254.566C272.998 250.216 269.787 246.757 265.686 244.188C261.626 241.62 256.986 240.335 251.765 240.335C247.83 240.335 244.163 241.122 240.766 242.697C237.368 244.23 234.386 246.343 231.817 249.036C229.29 251.728 227.301 254.815 225.851 258.295C224.401 261.734 223.676 265.359 223.676 269.17C223.676 274.225 224.857 278.948 227.218 283.339C229.621 287.731 232.894 291.273 237.037 293.966C241.221 296.659 245.965 298.006 251.268 298.006Z" fill="white"/>
</svg>
