<svg xmlns="http://www.w3.org/2000/svg" width="20" height="20" viewBox="0 0 20 20" fill="none">
    <g clip-path="url(#clip0_6_60)">
        <path
            d="M20 10.25C20 12.484 19.364 14.493 18.092 16.277C16.821 18.061 15.178 19.295 13.164 19.98C12.93 20.025 12.758 19.994 12.65 19.887C12.5967 19.8352 12.5547 19.7729 12.5267 19.704C12.4986 19.6352 12.4851 19.5613 12.487 19.487V16.67C12.487 15.807 12.261 15.175 11.81 14.775C12.2606 14.7298 12.7069 14.6495 13.145 14.535C13.539 14.428 13.947 14.255 14.368 14.015C14.7728 13.7885 15.1308 13.4872 15.423 13.127C15.705 12.775 15.935 12.308 16.113 11.725C16.291 11.142 16.38 10.473 16.38 9.717C16.38 8.64 16.037 7.723 15.352 6.967C15.672 6.157 15.638 5.25 15.247 4.244C15.004 4.164 14.653 4.214 14.193 4.391C13.7757 4.54774 13.3746 4.74432 12.995 4.978L12.5 5.298C11.687 5.06621 10.8454 4.94974 10 4.952C9.15453 4.95006 8.31298 5.06687 7.5 5.299C7.31914 5.17375 7.13473 5.0537 6.947 4.939C6.717 4.796 6.354 4.625 5.859 4.425C5.365 4.225 4.991 4.165 4.739 4.245C4.358 5.25 4.327 6.157 4.649 6.967C3.963 7.723 3.619 8.64 3.619 9.717C3.619 10.473 3.709 11.14 3.887 11.719C4.065 12.297 4.293 12.764 4.57 13.12C4.85724 13.4839 5.21335 13.7877 5.618 14.014C6.039 14.254 6.448 14.428 6.842 14.534C7.237 14.642 7.682 14.722 8.177 14.775C7.83 15.095 7.617 15.554 7.539 16.15C7.35256 16.2403 7.15576 16.3075 6.953 16.35C6.70865 16.398 6.45999 16.4204 6.211 16.417C5.924 16.417 5.641 16.321 5.358 16.13C5.076 15.938 4.835 15.66 4.635 15.296C4.47877 15.0207 4.26322 14.7837 4.004 14.602C3.748 14.424 3.533 14.317 3.359 14.282L3.099 14.242C2.917 14.242 2.791 14.262 2.721 14.302C2.651 14.342 2.631 14.392 2.656 14.455C2.68541 14.5228 2.72485 14.5859 2.773 14.642C2.82295 14.702 2.88004 14.7558 2.943 14.802L3.033 14.868C3.225 14.958 3.413 15.127 3.6 15.376C3.787 15.625 3.924 15.852 4.01 16.056L4.14 16.363C4.253 16.701 4.444 16.975 4.714 17.184C4.983 17.394 5.274 17.527 5.586 17.584C5.898 17.642 6.2 17.674 6.491 17.678C6.781 17.682 7.023 17.667 7.214 17.631L7.513 17.578C7.513 17.916 7.515 18.312 7.52 18.766L7.526 19.486C7.526 19.646 7.47 19.78 7.356 19.886C7.244 19.994 7.07 20.025 6.836 19.98C4.822 19.295 3.179 18.06 1.908 16.277C0.636 14.493 0 12.484 0 10.25C0 8.39 0.447 6.676 1.341 5.105C2.20648 3.56416 3.46175 2.27785 4.981 1.375C6.4955 0.463316 8.23231 -0.0125011 10 3.15669e-06C11.768 -0.0126855 13.5052 0.463138 15.02 1.375C16.5389 2.27799 17.7938 3.56428 18.659 5.105C19.553 6.675 20 8.391 20 10.25Z"
            fill="#303030" />
    </g>
    <defs>
        <clipPath id="clip0_6_60">
            <rect width="20" height="20" fill="white" />
        </clipPath>
    </defs>
</svg>