<svg width="1920" height="1080" viewBox="0 0 1920 1080" fill="none" xmlns="http://www.w3.org/2000/svg">
<rect width="1920" height="1080" fill="#FF7A00"/>
<path d="M959.371 678.113C943.413 678.113 929.041 674.939 916.256 668.592C903.471 662.245 893.225 653.541 885.518 642.479C877.811 631.417 873.595 618.813 872.87 604.668H905.512C906.781 617.272 912.493 627.699 922.649 635.95C932.895 644.111 945.135 648.191 959.371 648.191C970.796 648.191 980.951 645.516 989.837 640.167C998.813 634.817 1005.84 627.472 1010.92 618.133C1016.09 608.703 1018.67 598.049 1018.67 586.171C1018.67 574.021 1016 563.186 1010.65 553.665C1005.39 544.054 998.133 536.483 988.885 530.952C979.636 525.421 969.073 522.61 957.195 522.519C948.672 522.428 939.922 523.743 930.945 526.463C921.969 529.093 914.579 532.493 908.776 536.664L877.222 532.856L894.087 395.759H1038.8V425.681H922.377L912.584 507.83H914.216C919.928 503.297 927.092 499.534 935.705 496.542C944.319 493.549 953.296 492.053 962.635 492.053C979.682 492.053 994.869 496.134 1008.2 504.294C1021.62 512.364 1032.14 523.426 1039.75 537.48C1047.46 551.534 1051.31 567.583 1051.31 585.627C1051.31 603.399 1047.32 619.267 1039.34 633.23C1031.46 647.103 1020.57 658.074 1006.7 666.144C992.829 674.123 977.052 678.113 959.371 678.113Z" fill="white"/>
</svg>
