<svg width="1338" height="2071" viewBox="0 0 1338 2071" fill="none" xmlns="http://www.w3.org/2000/svg">
<rect x="0.4375" y="0.879883" width="1337.56" height="2070" fill="#DBD8D8"/>
<path d="M672.178 1269.07C653.594 1268.78 635.01 1265.24 616.427 1258.46C597.843 1251.67 580.881 1240.24 565.542 1224.16C550.203 1207.94 537.888 1186.04 528.596 1158.46C519.304 1130.73 514.658 1095.92 514.658 1054.03C514.658 1013.92 518.419 978.371 525.941 947.398C533.463 916.277 544.377 890.098 558.684 868.859C572.991 847.473 590.247 831.249 610.453 820.187C630.807 809.125 653.742 803.594 679.258 803.594C704.626 803.594 727.192 808.683 746.956 818.86C766.867 828.889 783.091 842.901 795.628 860.894C808.164 878.888 816.276 899.611 819.964 923.062H765.982C760.967 902.708 751.233 885.82 736.779 872.399C722.325 858.977 703.151 852.266 679.258 852.266C644.155 852.266 616.5 867.532 596.294 898.062C576.235 928.593 566.132 971.439 565.985 1026.6H569.525C577.784 1014.06 587.592 1003.37 598.949 994.521C610.453 985.524 623.137 978.592 637.002 973.725C650.866 968.858 665.541 966.424 681.027 966.424C706.986 966.424 730.732 972.913 752.265 985.893C773.799 998.724 791.055 1016.5 804.035 1039.21C817.014 1061.78 823.503 1087.66 823.503 1116.86C823.503 1144.89 817.235 1170.55 804.698 1193.85C792.162 1217.01 774.536 1235.45 751.823 1249.16C729.257 1262.73 702.709 1269.37 672.178 1269.07ZM672.178 1220.4C690.762 1220.4 707.428 1215.76 722.177 1206.46C737.074 1197.17 748.799 1184.71 757.354 1169.08C766.056 1153.44 770.407 1136.04 770.407 1116.86C770.407 1098.13 766.203 1081.1 757.796 1065.76C749.537 1050.27 738.106 1037.96 723.505 1028.81C709.051 1019.67 692.532 1015.1 673.948 1015.1C659.936 1015.1 646.883 1017.9 634.789 1023.5C622.695 1028.96 612.076 1036.48 602.931 1046.07C593.934 1055.66 586.855 1066.64 581.693 1079.03C576.53 1091.27 573.949 1104.18 573.949 1117.75C573.949 1135.74 578.153 1152.56 586.56 1168.19C595.114 1183.82 606.766 1196.44 621.515 1206.02C636.412 1215.61 653.299 1220.4 672.178 1220.4Z" fill="white"/>
</svg>
