<svg width="1921" height="1080" viewBox="0 0 1921 1080" fill="none" xmlns="http://www.w3.org/2000/svg">
<rect x="0.4375" width="1920" height="1080" fill="#DBD8D8"/>
<path d="M960.489 678.113C941.81 678.113 925.308 674.803 910.981 668.184C896.746 661.475 885.638 652.271 877.659 640.575C869.68 628.787 865.736 615.368 865.827 600.316C865.736 588.529 868.048 577.648 872.763 567.674C877.478 557.609 883.916 549.222 892.076 542.512C900.327 535.712 909.531 531.405 919.686 529.592V527.96C906.357 524.514 895.748 517.033 887.86 505.518C879.971 493.912 876.073 480.719 876.163 465.94C876.073 451.795 879.654 439.146 886.908 427.993C894.162 416.841 904.136 408.045 916.83 401.608C929.615 395.17 944.167 391.951 960.489 391.951C976.628 391.951 991.045 395.17 1003.74 401.608C1016.43 408.045 1026.41 416.841 1033.66 427.993C1041.01 439.146 1044.72 451.795 1044.81 465.94C1044.72 480.719 1040.69 493.912 1032.71 505.518C1024.82 517.033 1014.35 524.514 1001.29 527.96V529.592C1011.36 531.405 1020.42 535.712 1028.49 542.512C1036.56 549.222 1043 557.609 1047.81 567.674C1052.61 577.648 1055.06 588.529 1055.15 600.316C1055.06 615.368 1050.98 628.787 1042.91 640.575C1034.93 652.271 1023.82 661.475 1009.59 668.184C995.443 674.803 979.076 678.113 960.489 678.113ZM960.489 648.191C973.092 648.191 983.973 646.151 993.131 642.071C1002.29 637.99 1009.36 632.233 1014.35 624.798C1019.33 617.362 1021.87 608.658 1021.96 598.684C1021.87 588.166 1019.15 578.872 1013.8 570.802C1008.45 562.732 1001.16 556.385 991.906 551.761C982.749 547.137 972.276 544.825 960.489 544.825C948.61 544.825 938.002 547.137 928.663 551.761C919.414 556.385 912.115 562.732 906.765 570.802C901.506 578.872 898.922 588.166 899.013 598.684C898.922 608.658 901.325 617.362 906.221 624.798C911.208 632.233 918.326 637.99 927.574 642.071C936.823 646.151 947.794 648.191 960.489 648.191ZM960.489 515.991C970.462 515.991 979.303 513.996 987.01 510.006C994.808 506.017 1000.93 500.44 1005.37 493.277C1009.81 486.114 1012.08 477.727 1012.17 468.116C1012.08 458.686 1009.86 450.48 1005.51 443.498C1001.16 436.426 995.125 430.985 987.418 427.177C979.711 423.278 970.734 421.329 960.489 421.329C950.061 421.329 940.949 423.278 933.151 427.177C925.353 430.985 919.323 436.426 915.062 443.498C910.8 450.48 908.715 458.686 908.805 468.116C908.715 477.727 910.845 486.114 915.198 493.277C919.641 500.44 925.761 506.017 933.559 510.006C941.357 513.996 950.333 515.991 960.489 515.991Z" fill="white"/>
</svg>
