<svg width="1921" height="1080" viewBox="0 0 1921 1080" fill="none" xmlns="http://www.w3.org/2000/svg">
<rect x="0.437012" width="1920" height="1080" fill="#DBD8D8"/>
<path d="M873.324 674.305V649.823L965.265 549.177C976.055 537.389 984.941 527.143 991.923 518.439C998.905 509.644 1004.07 501.393 1007.43 493.685C1010.87 485.888 1012.6 477.727 1012.6 469.204C1012.6 459.411 1010.24 450.933 1005.52 443.77C1000.9 436.607 994.552 431.076 986.483 427.177C978.413 423.278 969.346 421.329 959.281 421.329C948.582 421.329 939.242 423.55 931.263 427.993C923.375 432.346 917.254 438.466 912.902 446.354C908.64 454.243 906.51 463.491 906.51 474.1H874.412C874.412 457.779 878.175 443.453 885.7 431.121C893.226 418.79 903.472 409.179 916.438 402.288C929.495 395.397 944.139 391.951 960.369 391.951C976.69 391.951 991.152 395.397 1003.76 402.288C1016.36 409.179 1026.24 418.473 1033.41 430.169C1040.57 441.866 1044.15 454.878 1044.15 469.204C1044.15 479.45 1042.29 489.469 1038.57 499.262C1034.95 508.964 1028.6 519.799 1019.53 531.768C1010.56 543.646 998.089 558.153 982.13 575.29L919.566 642.207V644.383H1049.05V674.305H873.324Z" fill="white"/>
</svg>
