<svg width="1920" height="1080" viewBox="0 0 1920 1080" fill="none" xmlns="http://www.w3.org/2000/svg">
<rect width="1920" height="1080" fill="#FF7A00"/>
<path d="M961.02 678.113C943.067 678.113 927.063 675.03 913.009 668.864C899.046 662.699 887.938 654.13 879.687 643.159C871.526 632.097 867.084 619.267 866.358 604.668H900.632C901.358 613.645 904.441 621.397 909.881 627.926C915.321 634.364 922.439 639.35 931.234 642.887C940.029 646.423 949.777 648.191 960.476 648.191C972.445 648.191 983.053 646.106 992.302 641.935C1001.55 637.764 1008.8 631.961 1014.06 624.526C1019.32 617.09 1021.95 608.477 1021.95 598.684C1021.95 588.438 1019.41 579.416 1014.34 571.618C1009.26 563.73 1001.82 557.564 992.03 553.121C982.237 548.678 970.269 546.457 956.124 546.457H933.818V516.535H956.124C967.186 516.535 976.888 514.54 985.23 510.55C993.662 506.561 1000.24 500.939 1004.95 493.685C1009.76 486.432 1012.16 477.908 1012.16 468.116C1012.16 458.686 1010.07 450.48 1005.9 443.498C1001.73 436.516 995.838 431.076 988.222 427.177C980.696 423.278 971.81 421.329 961.564 421.329C951.953 421.329 942.886 423.097 934.362 426.633C925.93 430.079 919.039 435.111 913.689 441.73C908.339 448.259 905.438 456.147 904.985 465.396H872.343C872.887 450.797 877.284 438.013 885.535 427.041C893.787 415.979 904.577 407.365 917.905 401.2C931.325 395.034 946.059 391.951 962.108 391.951C979.336 391.951 994.115 395.442 1006.45 402.424C1018.78 409.315 1028.25 418.427 1034.87 429.761C1041.49 441.095 1044.8 453.336 1044.8 466.484C1044.8 482.17 1040.68 495.544 1032.42 506.606C1024.26 517.668 1013.16 525.33 999.102 529.592V531.768C1016.69 534.669 1030.43 542.15 1040.31 554.209C1050.2 566.178 1055.14 581.003 1055.14 598.684C1055.14 613.826 1051.01 627.427 1042.76 639.487C1034.6 651.455 1023.45 660.885 1009.3 667.776C995.158 674.667 979.064 678.113 961.02 678.113Z" fill="white"/>
</svg>
