<svg width="1921" height="1080" viewBox="0 0 1921 1080" fill="none" xmlns="http://www.w3.org/2000/svg">
<rect x="0.4375" width="1920" height="1080" fill="#DBD8D8"/>
<path d="M959.808 678.113C943.85 678.113 929.479 674.939 916.694 668.592C903.909 662.245 893.663 653.541 885.956 642.479C878.249 631.417 874.032 618.813 873.307 604.668H905.949C907.219 617.272 912.931 627.699 923.086 635.95C933.332 644.111 945.573 648.191 959.808 648.191C971.233 648.191 981.388 645.516 990.274 640.167C999.251 634.817 1006.28 627.472 1011.36 618.133C1016.52 608.703 1019.11 598.049 1019.11 586.171C1019.11 574.021 1016.43 563.186 1011.08 553.665C1005.82 544.054 998.571 536.483 989.322 530.952C980.074 525.421 969.51 522.61 957.632 522.519C949.109 522.428 940.359 523.743 931.383 526.463C922.406 529.093 915.016 532.493 909.213 536.664L877.659 532.856L894.524 395.759H1039.24V425.681H922.814L913.022 507.83H914.654C920.366 503.297 927.529 499.534 936.143 496.542C944.757 493.549 953.733 492.053 963.073 492.053C980.119 492.053 995.307 496.134 1008.64 504.294C1022.06 512.364 1032.57 523.426 1040.19 537.48C1047.9 551.534 1051.75 567.583 1051.75 585.627C1051.75 603.399 1047.76 619.267 1039.78 633.23C1031.89 647.103 1021.01 658.074 1007.14 666.144C993.267 674.123 977.49 678.113 959.808 678.113Z" fill="white"/>
</svg>
