<svg width="1921" height="1080" viewBox="0 0 1921 1080" fill="none" xmlns="http://www.w3.org/2000/svg">
<rect x="0.4375" width="1920" height="1080" fill="#DBD8D8"/>
<path d="M958.448 391.951C969.873 392.042 981.298 394.218 992.723 398.479C1004.15 402.741 1014.57 409.813 1024 419.697C1033.43 429.489 1041.01 442.864 1046.72 459.819C1052.43 476.775 1055.29 498.038 1055.29 523.607C1055.29 548.361 1052.93 570.349 1048.21 589.571C1043.59 608.703 1036.88 624.843 1028.08 637.99C1019.38 651.138 1008.77 661.112 996.259 667.912C983.837 674.713 969.782 678.113 954.096 678.113C938.5 678.113 924.582 675.03 912.341 668.864C900.191 662.608 890.217 653.949 882.42 642.887C874.712 631.734 869.771 618.813 867.595 604.124H900.781C903.773 616.909 909.712 627.472 918.598 635.814C927.574 644.065 939.407 648.191 954.096 648.191C975.585 648.191 992.541 638.806 1004.96 620.037C1017.48 601.268 1023.73 574.746 1023.73 540.472H1021.56C1016.48 548.089 1010.45 554.663 1003.47 560.194C996.485 565.725 988.733 569.986 980.21 572.978C971.687 575.971 962.619 577.467 953.008 577.467C937.05 577.467 922.406 573.522 909.077 565.634C895.839 557.655 885.23 546.729 877.251 532.856C869.363 518.892 865.419 502.934 865.419 484.981C865.419 467.934 869.227 452.339 876.843 438.194C884.55 423.958 895.34 412.624 909.213 404.192C923.177 395.759 939.589 391.679 958.448 391.951ZM958.448 421.873C947.024 421.873 936.732 424.729 927.574 430.441C918.507 436.063 911.299 443.68 905.949 453.291C900.69 462.811 898.061 473.375 898.061 484.981C898.061 496.587 900.599 507.15 905.677 516.671C910.845 526.101 917.873 533.627 926.758 539.248C935.735 544.779 945.936 547.545 957.36 547.545C965.974 547.545 973.999 545.867 981.434 542.512C988.869 539.067 995.352 534.397 1000.88 528.504C1006.5 522.519 1010.9 515.764 1014.08 508.238C1017.25 500.622 1018.84 492.688 1018.84 484.437C1018.84 473.556 1016.21 463.355 1010.95 453.835C1005.78 444.314 998.616 436.607 989.458 430.713C980.391 424.82 970.054 421.873 958.448 421.873Z" fill="white"/>
</svg>
