<svg width="1338" height="2071" viewBox="0 0 1338 2071" fill="none" xmlns="http://www.w3.org/2000/svg">
<rect x="0.4375" y="0.879883" width="1337.56" height="2070" fill="#DBD8D8"/>
<path d="M669.302 1269.07C638.919 1269.07 612.076 1263.69 588.772 1252.92C565.616 1242.01 547.549 1227.04 534.569 1208.01C521.59 1188.84 515.174 1167.01 515.322 1142.53C515.174 1123.35 518.935 1105.65 526.605 1089.43C534.274 1073.06 544.746 1059.42 558.02 1048.5C571.442 1037.44 586.412 1030.43 602.931 1027.48V1024.83C581.25 1019.23 563.994 1007.06 551.162 988.326C538.33 969.447 531.988 947.988 532.136 923.947C531.988 900.938 537.814 880.363 549.613 862.222C561.413 844.081 577.637 829.774 598.285 819.302C619.081 808.83 642.754 803.594 669.302 803.594C695.555 803.594 719.006 808.83 739.655 819.302C760.304 829.774 776.528 844.081 788.327 862.222C800.274 880.363 806.321 900.938 806.468 923.947C806.321 947.988 799.757 969.447 786.778 988.326C773.946 1007.06 756.911 1019.23 735.673 1024.83V1027.48C752.044 1030.43 766.793 1037.44 779.92 1048.5C793.047 1059.42 803.518 1073.06 811.335 1089.43C819.152 1105.65 823.135 1123.35 823.282 1142.53C823.135 1167.01 816.498 1188.84 803.371 1208.01C790.392 1227.04 772.324 1242.01 749.168 1252.92C726.16 1263.69 699.538 1269.07 669.302 1269.07ZM669.302 1220.4C689.803 1220.4 707.502 1217.08 722.399 1210.45C737.295 1203.81 748.799 1194.44 756.911 1182.35C765.023 1170.26 769.153 1156.1 769.301 1139.87C769.153 1122.76 764.728 1107.65 756.026 1094.52C747.324 1081.39 735.451 1071.07 720.407 1063.55C705.511 1056.02 688.476 1052.26 669.302 1052.26C649.981 1052.26 632.724 1056.02 617.533 1063.55C602.489 1071.07 590.616 1081.39 581.914 1094.52C573.359 1107.65 569.156 1122.76 569.303 1139.87C569.156 1156.1 573.064 1170.26 581.029 1182.35C589.141 1194.44 600.719 1203.81 615.763 1210.45C630.807 1217.08 648.653 1220.4 669.302 1220.4ZM669.302 1005.36C685.526 1005.36 699.906 1002.12 712.443 995.627C725.127 989.137 735.083 980.067 742.31 968.415C749.537 956.763 753.224 943.12 753.372 927.486C753.224 912.147 749.611 898.799 742.531 887.443C735.451 875.938 725.643 867.089 713.107 860.894C700.57 854.552 685.968 851.381 669.302 851.381C652.341 851.381 637.518 854.552 624.834 860.894C612.149 867.089 602.341 875.938 595.409 887.443C588.477 898.799 585.085 912.147 585.232 927.486C585.085 943.12 588.551 956.763 595.63 968.415C602.857 980.067 612.813 989.137 625.497 995.627C638.181 1002.12 652.783 1005.36 669.302 1005.36Z" fill="white"/>
</svg>
