<svg width="1921" height="1080" viewBox="0 0 1921 1080" fill="none" xmlns="http://www.w3.org/2000/svg">
<rect x="0.437012" width="1920" height="1080" fill="#DBD8D8"/>
<path d="M961.457 678.113C943.504 678.113 927.5 675.03 913.446 668.864C899.483 662.699 888.375 654.13 880.124 643.159C871.963 632.097 867.521 619.267 866.795 604.668H901.069C901.795 613.645 904.878 621.397 910.318 627.926C915.758 634.364 922.876 639.35 931.671 642.887C940.466 646.423 950.214 648.191 960.913 648.191C972.882 648.191 983.49 646.106 992.739 641.935C1001.99 637.764 1009.24 631.961 1014.5 624.526C1019.76 617.09 1022.39 608.477 1022.39 598.684C1022.39 588.438 1019.85 579.416 1014.77 571.618C1009.69 563.73 1002.26 557.564 992.467 553.121C982.674 548.678 970.706 546.457 956.561 546.457H934.255V516.535H956.561C967.623 516.535 977.325 514.54 985.667 510.55C994.099 506.561 1000.67 500.939 1005.39 493.685C1010.19 486.432 1012.6 477.908 1012.6 468.116C1012.6 458.686 1010.51 450.48 1006.34 443.498C1002.17 436.516 996.275 431.076 988.659 427.177C981.133 423.278 972.247 421.329 962.001 421.329C952.39 421.329 943.323 423.097 934.799 426.633C926.367 430.079 919.476 435.111 914.126 441.73C908.776 448.259 905.875 456.147 905.422 465.396H872.78C873.324 450.797 877.721 438.013 885.972 427.041C894.224 415.979 905.014 407.365 918.342 401.2C931.762 395.034 946.496 391.951 962.545 391.951C979.773 391.951 994.552 395.442 1006.88 402.424C1019.22 409.315 1028.69 418.427 1035.31 429.761C1041.93 441.095 1045.24 453.336 1045.24 466.484C1045.24 482.17 1041.11 495.544 1032.86 506.606C1024.7 517.668 1013.59 525.33 999.539 529.592V531.768C1017.13 534.669 1030.87 542.15 1040.75 554.209C1050.63 566.178 1055.57 581.003 1055.57 598.684C1055.57 613.826 1051.45 627.427 1043.2 639.487C1035.04 651.455 1023.88 660.885 1009.74 667.776C995.595 674.667 979.501 678.113 961.457 678.113Z" fill="white"/>
</svg>
