<svg width="1920" height="1080" viewBox="0 0 1920 1080" fill="none" xmlns="http://www.w3.org/2000/svg">
<rect width="1920" height="1080" fill="#FF7A00"/>
<path d="M872.887 674.305V649.823L964.828 549.177C975.618 537.389 984.504 527.143 991.486 518.439C998.468 509.644 1003.64 501.393 1006.99 493.685C1010.44 485.888 1012.16 477.727 1012.16 469.204C1012.16 459.411 1009.8 450.933 1005.09 443.77C1000.46 436.607 994.115 431.076 986.046 427.177C977.976 423.278 968.909 421.329 958.844 421.329C948.145 421.329 938.805 423.55 930.826 427.993C922.938 432.346 916.817 438.466 912.465 446.354C908.203 454.243 906.073 463.491 906.073 474.1H873.975C873.975 457.779 877.738 443.453 885.263 431.121C892.789 418.79 903.035 409.179 916.001 402.288C929.058 395.397 943.702 391.951 959.932 391.951C976.253 391.951 990.715 395.397 1003.32 402.288C1015.92 409.179 1025.81 418.473 1032.97 430.169C1040.13 441.866 1043.71 454.878 1043.71 469.204C1043.71 479.45 1041.85 489.469 1038.14 499.262C1034.51 508.964 1028.16 519.799 1019.1 531.768C1010.12 543.646 997.652 558.153 981.693 575.29L919.129 642.207V644.383H1048.61V674.305H872.887Z" fill="white"/>
</svg>
