<svg width="1338" height="2071" viewBox="0 0 1338 2071" fill="none" xmlns="http://www.w3.org/2000/svg">
<rect x="0.437012" y="0.879883" width="1337.56" height="2070" fill="#DBD8D8"/>
<path d="M527.517 1262.88V1223.06L677.072 1059.34C694.624 1040.17 709.078 1023.5 720.435 1009.34C731.791 995.037 740.198 981.615 745.655 969.079C751.26 956.395 754.062 943.12 754.062 929.256C754.062 913.327 750.228 899.537 742.558 887.885C735.036 876.233 724.712 867.237 711.585 860.894C698.459 854.552 683.709 851.381 667.338 851.381C649.934 851.381 634.743 854.995 621.763 862.222C608.932 869.301 598.976 879.257 591.897 892.089C584.965 904.92 581.499 919.964 581.499 937.221H529.287C529.287 910.672 535.408 887.369 547.649 867.31C559.891 847.252 576.558 831.618 597.649 820.408C618.887 809.199 642.707 803.594 669.108 803.594C695.656 803.594 719.181 809.199 739.682 820.408C760.183 831.618 776.26 846.735 787.912 865.762C799.563 884.788 805.389 905.953 805.389 929.256C805.389 945.923 802.366 962.22 796.318 978.149C790.419 993.931 780.095 1011.56 765.345 1031.02C750.744 1050.35 730.464 1073.94 704.506 1101.82L602.737 1210.67V1214.21H813.354V1262.88H527.517Z" fill="white"/>
</svg>
