<svg width="1920" height="1080" viewBox="0 0 1920 1080" fill="none" xmlns="http://www.w3.org/2000/svg">
<rect width="1920" height="1080" fill="#FF7A00"/>
<path d="M961.819 678.113C950.394 677.932 938.97 675.755 927.545 671.585C916.12 667.414 905.693 660.386 896.263 650.503C886.833 640.529 879.262 627.064 873.55 610.109C867.837 593.062 864.981 571.664 864.981 545.913C864.981 521.25 867.293 499.398 871.917 480.357C876.542 461.225 883.252 445.13 892.047 432.074C900.842 418.926 911.451 408.952 923.873 402.152C936.386 395.351 950.485 391.951 966.171 391.951C981.767 391.951 995.64 395.079 1007.79 401.336C1020.03 407.501 1030 416.115 1037.71 427.177C1045.42 438.239 1050.41 450.979 1052.67 465.396H1019.49C1016.4 452.883 1010.42 442.501 1001.53 434.25C992.648 425.998 980.86 421.873 966.171 421.873C944.591 421.873 927.59 431.257 915.168 450.027C902.837 468.796 896.626 495.136 896.535 529.048H898.711C903.789 521.34 909.819 514.767 916.8 509.326C923.873 503.795 931.671 499.534 940.194 496.542C948.717 493.549 957.739 492.053 967.259 492.053C983.218 492.053 997.816 496.043 1011.05 504.022C1024.29 511.911 1034.9 522.837 1042.88 536.8C1050.86 550.673 1054.85 566.586 1054.85 584.539C1054.85 601.767 1051 617.544 1043.29 631.87C1035.58 646.106 1024.75 657.44 1010.78 665.872C996.909 674.214 980.588 678.294 961.819 678.113ZM961.819 648.191C973.244 648.191 983.49 645.335 992.557 639.623C1001.71 633.91 1008.92 626.248 1014.18 616.637C1019.53 607.026 1022.21 596.326 1022.21 584.539C1022.21 573.024 1019.62 562.551 1014.45 553.121C1009.38 543.6 1002.35 536.029 993.373 530.408C984.487 524.786 974.332 521.975 962.907 521.975C954.293 521.975 946.269 523.698 938.834 527.143C931.399 530.498 924.87 535.123 919.248 541.016C913.717 546.91 909.365 553.665 906.192 561.282C903.018 568.807 901.431 576.741 901.431 585.083C901.431 596.145 904.015 606.482 909.184 616.093C914.443 625.704 921.606 633.457 930.673 639.35C939.831 645.244 950.213 648.191 961.819 648.191Z" fill="white"/>
</svg>
