<svg width="501" height="500" viewBox="0 0 501 500" fill="none" xmlns="http://www.w3.org/2000/svg">
<rect x="0.4375" width="500" height="500" fill="#DBD8D8"/>
<path d="M250.461 311.678C241.926 311.678 234.386 310.165 227.84 307.141C221.336 304.075 216.26 299.87 212.615 294.526C208.969 289.14 207.167 283.008 207.208 276.131C207.167 270.745 208.223 265.773 210.377 261.216C212.532 256.617 215.473 252.785 219.202 249.719C222.972 246.612 227.177 244.644 231.817 243.815V243.07C225.727 241.495 220.88 238.077 217.275 232.816C213.671 227.513 211.89 221.485 211.931 214.732C211.89 208.268 213.526 202.489 216.84 197.393C220.155 192.297 224.712 188.279 230.512 185.337C236.354 182.395 243.003 180.925 250.461 180.925C257.835 180.925 264.423 182.395 270.223 185.337C276.023 188.279 280.58 192.297 283.895 197.393C287.251 202.489 288.949 208.268 288.991 214.732C288.949 221.485 287.106 227.513 283.46 232.816C279.855 238.077 275.07 241.495 269.104 243.07V243.815C273.703 244.644 277.846 246.612 281.533 249.719C285.221 252.785 288.162 256.617 290.358 261.216C292.554 265.773 293.672 270.745 293.714 276.131C293.672 283.008 291.808 289.14 288.121 294.526C284.475 299.87 279.4 304.075 272.895 307.141C266.432 310.165 258.954 311.678 250.461 311.678ZM250.461 298.006C256.22 298.006 261.191 297.074 265.376 295.209C269.56 293.345 272.792 290.714 275.07 287.317C277.349 283.92 278.509 279.942 278.55 275.385C278.509 270.579 277.266 266.333 274.822 262.645C272.377 258.958 269.042 256.058 264.816 253.945C260.632 251.832 255.847 250.776 250.461 250.776C245.033 250.776 240.186 251.832 235.919 253.945C231.693 256.058 228.358 258.958 225.914 262.645C223.511 266.333 222.33 270.579 222.371 275.385C222.33 279.942 223.428 283.92 225.665 287.317C227.944 290.714 231.196 293.345 235.422 295.209C239.648 297.074 244.661 298.006 250.461 298.006ZM250.461 237.601C255.018 237.601 259.058 236.689 262.579 234.866C266.142 233.044 268.939 230.496 270.969 227.223C272.999 223.95 274.034 220.117 274.076 215.726C274.034 211.417 273.019 207.668 271.031 204.478C269.042 201.246 266.287 198.76 262.765 197.02C259.244 195.239 255.142 194.348 250.461 194.348C245.696 194.348 241.533 195.239 237.97 197.02C234.407 198.76 231.652 201.246 229.704 204.478C227.757 207.668 226.804 211.417 226.846 215.726C226.804 220.117 227.778 223.95 229.767 227.223C231.797 230.496 234.593 233.044 238.156 234.866C241.719 236.689 245.821 237.601 250.461 237.601Z" fill="white"/>
</svg>
