<svg width="1921" height="1080" viewBox="0 0 1921 1080" fill="none" xmlns="http://www.w3.org/2000/svg">
<rect x="0.4375" width="1920" height="1080" fill="#DBD8D8"/>
<path d="M962.257 678.113C950.832 677.932 939.407 675.755 927.982 671.585C916.558 667.414 906.13 660.386 896.701 650.503C887.271 640.529 879.699 627.064 873.987 610.109C868.275 593.062 865.419 571.664 865.419 545.913C865.419 521.25 867.731 499.398 872.355 480.357C876.979 461.225 883.689 445.13 892.484 432.074C901.279 418.926 911.888 408.952 924.31 402.152C936.823 395.351 950.923 391.951 966.609 391.951C982.205 391.951 996.077 395.079 1008.23 401.336C1020.47 407.501 1030.44 416.115 1038.15 427.177C1045.86 438.239 1050.84 450.979 1053.11 465.396H1019.92C1016.84 452.883 1010.86 442.501 1001.97 434.25C993.085 425.998 981.298 421.873 966.609 421.873C945.029 421.873 928.028 431.257 915.606 450.027C903.274 468.796 897.063 495.136 896.973 529.048H899.149C904.226 521.34 910.256 514.767 917.238 509.326C924.31 503.795 932.108 499.534 940.631 496.542C949.154 493.549 958.176 492.053 967.697 492.053C983.655 492.053 998.254 496.043 1011.49 504.022C1024.73 511.911 1035.34 522.837 1043.32 536.8C1051.3 550.673 1055.29 566.586 1055.29 584.539C1055.29 601.767 1051.43 617.544 1043.73 631.87C1036.02 646.106 1025.18 657.44 1011.22 665.872C997.347 674.214 981.026 678.294 962.257 678.113ZM962.257 648.191C973.681 648.191 983.927 645.335 992.995 639.623C1002.15 633.91 1009.36 626.248 1014.62 616.637C1019.97 607.026 1022.64 596.326 1022.64 584.539C1022.64 573.024 1020.06 562.551 1014.89 553.121C1009.81 543.6 1002.79 536.029 993.811 530.408C984.925 524.786 974.769 521.975 963.345 521.975C954.731 521.975 946.706 523.698 939.271 527.143C931.836 530.498 925.308 535.123 919.686 541.016C914.155 546.91 909.803 553.665 906.629 561.282C903.456 568.807 901.869 576.741 901.869 585.083C901.869 596.145 904.453 606.482 909.621 616.093C914.88 625.704 922.043 633.457 931.111 639.35C940.269 645.244 950.651 648.191 962.257 648.191Z" fill="white"/>
</svg>
