<svg width="501" height="500" viewBox="0 0 501 500" fill="none" xmlns="http://www.w3.org/2000/svg">
<rect x="0.4375" width="500" height="500" fill="#DBD8D8"/>
<path d="M249.529 180.925C254.749 180.966 259.969 181.96 265.189 183.908C270.409 185.855 275.174 189.086 279.482 193.602C283.791 198.077 287.251 204.188 289.861 211.935C292.471 219.682 293.776 229.398 293.776 241.081C293.776 252.391 292.699 262.438 290.544 271.221C288.431 279.963 285.366 287.337 281.347 293.345C277.37 299.352 272.522 303.909 266.805 307.017C261.129 310.124 254.707 311.678 247.54 311.678C240.414 311.678 234.055 310.269 228.462 307.452C222.91 304.593 218.353 300.636 214.79 295.582C211.268 290.486 209.01 284.582 208.016 277.871H223.179C224.546 283.712 227.26 288.539 231.32 292.35C235.422 296.121 240.828 298.006 247.54 298.006C257.359 298.006 265.106 293.718 270.782 285.142C276.5 276.566 279.358 264.447 279.358 248.787H278.364C276.044 252.267 273.289 255.271 270.099 257.798C266.908 260.325 263.366 262.272 259.472 263.64C255.577 265.007 251.434 265.69 247.043 265.69C239.751 265.69 233.06 263.888 226.97 260.284C220.921 256.638 216.074 251.646 212.428 245.307C208.824 238.927 207.022 231.635 207.022 223.432C207.022 215.643 208.762 208.517 212.242 202.054C215.763 195.549 220.693 190.371 227.032 186.518C233.412 182.665 240.911 180.8 249.529 180.925ZM249.529 194.597C244.308 194.597 239.606 195.902 235.422 198.512C231.279 201.08 227.985 204.56 225.541 208.952C223.138 213.302 221.936 218.129 221.936 223.432C221.936 228.735 223.096 233.561 225.416 237.912C227.778 242.22 230.989 245.659 235.049 248.228C239.15 250.755 243.811 252.018 249.031 252.018C252.967 252.018 256.634 251.252 260.031 249.719C263.428 248.145 266.391 246.011 268.918 243.318C271.486 240.584 273.496 237.497 274.946 234.059C276.396 230.578 277.121 226.953 277.121 223.183C277.121 218.212 275.919 213.551 273.517 209.201C271.155 204.85 267.882 201.329 263.698 198.636C259.555 195.943 254.832 194.597 249.529 194.597Z" fill="white"/>
</svg>
