<svg width="1338" height="2071" viewBox="0 0 1338 2071" fill="none" xmlns="http://www.w3.org/2000/svg">
<rect x="0.437012" y="0.879883" width="1337.56" height="2070" fill="#DBD8D8"/>
<path d="M670.878 1269.07C641.675 1269.07 615.643 1264.06 592.782 1254.03C570.068 1244 552 1230.06 538.579 1212.22C525.305 1194.22 518.078 1173.35 516.898 1149.61H572.649C573.829 1164.21 578.844 1176.82 587.693 1187.44C596.543 1197.91 608.121 1206.02 622.427 1211.77C636.734 1217.53 652.589 1220.4 669.993 1220.4C689.462 1220.4 706.718 1217.01 721.762 1210.23C736.806 1203.44 748.605 1194 757.16 1181.91C765.714 1169.81 769.991 1155.8 769.991 1139.87C769.991 1123.21 765.862 1108.53 757.602 1095.85C749.343 1083.02 737.249 1072.99 721.32 1065.76C705.391 1058.53 685.922 1054.92 662.913 1054.92H626.631V1006.25H662.913C680.907 1006.25 696.689 1003 710.258 996.512C723.974 990.022 734.667 980.878 742.337 969.079C750.154 957.279 754.062 943.415 754.062 927.486C754.062 912.147 750.67 898.799 743.886 887.443C737.101 876.086 727.514 867.237 715.125 860.894C702.883 854.552 688.429 851.381 671.763 851.381C656.129 851.381 641.38 854.257 627.516 860.009C613.799 865.614 602.59 873.8 593.888 884.567C585.186 895.186 580.466 908.018 579.729 923.062H526.632C527.517 899.316 534.67 878.52 548.092 860.673C561.514 842.679 579.065 828.668 600.746 818.638C622.575 808.609 646.542 803.594 672.648 803.594C700.671 803.594 724.712 809.273 744.771 820.63C764.829 831.839 780.242 846.662 791.009 865.098C801.776 883.534 807.159 903.445 807.159 924.832C807.159 950.347 800.448 972.102 787.027 990.096C773.752 1008.09 755.685 1020.55 732.824 1027.48V1031.02C761.437 1035.74 783.782 1047.91 799.858 1067.53C815.935 1087 823.973 1111.11 823.973 1139.87C823.973 1164.5 817.262 1186.63 803.841 1206.24C790.566 1225.71 772.425 1241.05 749.416 1252.26C726.408 1263.47 700.228 1269.07 670.878 1269.07Z" fill="white"/>
</svg>
