<svg width="193" height="24" viewBox="0 0 193 24" fill="none" xmlns="http://www.w3.org/2000/svg">
    <path d="M193 5L186.813 19.3839C186.091 21.0841 185.209 22.2743 184.17 22.9544C183.13 23.6515 181.861 24 180.362 24C179.604 24 178.838 23.881 178.062 23.643C177.304 23.4219 176.687 23.1244 176.212 22.7503L177.956 19.3584C178.238 19.6134 178.573 19.8089 178.961 19.945C179.367 20.098 179.772 20.1745 180.177 20.1745C180.653 20.1745 181.041 20.081 181.341 19.894C181.658 19.7069 181.922 19.4094 182.134 19.0013L176 5H181.156L184.672 13.4416L188.215 5H193Z" fill="#303030"/>
    <path d="M170.986 6.88022C171.519 6.25348 172.208 5.78766 173.052 5.48276C173.916 5.16092 174.898 5 176 5V9.34483C175.522 9.29401 175.128 9.2686 174.815 9.2686C173.695 9.2686 172.814 9.54809 172.171 10.1071C171.546 10.6661 171.234 11.5215 171.234 12.6733V19H166V5.22867H170.986V6.88022Z" fill="#303030"/>
    <path d="M164 12.025C164 12.0583 163.974 12.45 163.923 13.2H153.872C154.077 13.9 154.468 14.4417 155.046 14.825C155.641 15.1917 156.381 15.375 157.265 15.375C157.929 15.375 158.498 15.2833 158.974 15.1C159.468 14.9167 159.961 14.6167 160.454 14.2L163.005 16.8C161.662 18.2667 159.697 19 157.112 19C155.497 19 154.077 18.7 152.852 18.1C151.628 17.5 150.675 16.6667 149.995 15.6C149.332 14.5333 149 13.325 149 11.975C149 10.6417 149.323 9.45 149.969 8.4C150.633 7.33333 151.543 6.5 152.699 5.9C153.855 5.3 155.156 5 156.602 5C157.98 5 159.23 5.28333 160.352 5.85C161.474 6.4 162.359 7.20833 163.005 8.275C163.668 9.325 164 10.575 164 12.025ZM156.628 8.375C155.879 8.375 155.25 8.58333 154.74 9C154.247 9.41667 153.932 9.98333 153.796 10.7H159.459C159.323 9.98333 159 9.41667 158.49 9C157.997 8.58333 157.376 8.375 156.628 8.375Z" fill="#303030"/>
    <path d="M141 0H146V19H141V0Z" fill="#303030"/>
    <path d="M133 0H138V19H133V0Z" fill="#303030"/>
    <path d="M122.805 5C125.143 5 126.926 5.51667 128.156 6.55C129.385 7.56667 130 9.13333 130 11.25V18.775H125.403V17.025C124.693 18.3417 123.307 19 121.247 19C120.156 19 119.212 18.8167 118.416 18.45C117.619 18.0833 117.013 17.5917 116.597 16.975C116.199 16.3417 116 15.625 116 14.825C116 13.5417 116.511 12.55 117.532 11.85C118.554 11.1333 120.13 10.775 122.26 10.775H125.065C124.978 9.34167 123.983 8.625 122.078 8.625C121.403 8.625 120.719 8.73333 120.026 8.95C119.333 9.15 118.745 9.43333 118.26 9.8L116.597 6.575C117.377 6.075 118.32 5.69167 119.429 5.425C120.554 5.14167 121.68 5 122.805 5ZM122.623 16C123.195 16 123.697 15.8667 124.13 15.6C124.563 15.3333 124.874 14.9417 125.065 14.425V13.25H122.935C121.498 13.25 120.779 13.7083 120.779 14.625C120.779 15.0417 120.944 15.375 121.273 15.625C121.602 15.875 122.052 16 122.623 16Z" fill="#303030"/>
    <path d="M109.06 9.62912H113.586V16.7994C112.552 17.5082 111.362 18.0522 110.017 18.4313C108.672 18.8104 107.328 19 105.983 19C104.086 19 102.379 18.6209 100.862 17.8626C99.3448 17.0879 98.1552 16.0165 97.2931 14.6484C96.431 13.2802 96 11.7308 96 10C96 8.26923 96.431 6.71978 97.2931 5.35165C98.1552 3.98352 99.3534 2.92033 100.888 2.16209C102.422 1.38736 104.155 1 106.086 1C107.776 1 109.293 1.27198 110.638 1.81593C111.983 2.35989 113.103 3.14286 114 4.16483L110.741 6.98352C109.517 5.6978 108.052 5.05495 106.345 5.05495C104.793 5.05495 103.543 5.50824 102.595 6.41483C101.647 7.30495 101.172 8.5 101.172 10C101.172 10.956 101.388 11.8132 101.819 12.5714C102.25 13.3132 102.853 13.8984 103.629 14.3269C104.405 14.739 105.293 14.9451 106.293 14.9451C107.276 14.9451 108.198 14.7555 109.06 14.3764V9.62912Z" fill="#303030"/>
    <path d="M86 10H94V13H86V10Z" fill="#303030"/>
    <path d="M78.3178 5C80.0476 5 81.4227 5.50817 82.4432 6.5245C83.4811 7.54083 84 9.07381 84 11.1234V19H79.0703V11.9111C79.0703 10.9456 78.88 10.2341 78.4995 9.77677C78.1362 9.31942 77.6173 9.09074 76.9427 9.09074C76.1989 9.09074 75.6022 9.34483 75.1524 9.85299C74.7027 10.3612 74.4778 11.1319 74.4778 12.1652V19H69.5481V11.9111C69.5481 10.0309 68.8389 9.09074 67.4205 9.09074C66.6595 9.09074 66.0541 9.34483 65.6043 9.85299C65.1546 10.3612 64.9297 11.1319 64.9297 12.1652V19H60V5.22867H64.6962V6.67695C65.2151 6.11797 65.8292 5.70296 66.5384 5.43194C67.2649 5.14398 68.0519 5 68.8995 5C69.8854 5 70.7676 5.17786 71.5459 5.53357C72.3243 5.88929 72.9557 6.43134 73.44 7.15971C73.9935 6.46521 74.6941 5.93164 75.5416 5.55898C76.3892 5.18633 77.3146 5 78.3178 5Z" fill="#303030"/>
    <path d="M49.1141 1C50.72 1 52.1146 1.27429 53.2979 1.82286C54.4812 2.35429 55.3941 3.12572 56.0364 4.13714C56.6788 5.13143 57 6.30571 57 7.66C57 9.01429 56.6788 10.1886 56.0364 11.1829C55.3941 12.1771 54.4812 12.9486 53.2979 13.4971C52.1146 14.0286 50.72 14.2943 49.1141 14.2943H46.0206V19H41V1H49.1141ZM48.8098 10.2829C49.841 10.2829 50.6186 10.06 51.1426 9.61429C51.6667 9.15143 51.9287 8.5 51.9287 7.66C51.9287 6.82 51.6667 6.16857 51.1426 5.70571C50.6186 5.24286 49.841 5.01143 48.8098 5.01143H46.0206V10.2829H48.8098Z" fill="#303030"/>
    <path d="M4.54262 19C3.62855 19 2.84578 18.748 2.19431 18.244C1.54283 17.74 1.21764 17.1349 1.21875 16.4286V3.57143C1.21875 2.86429 1.54449 2.25872 2.19597 1.75472C2.84745 1.25072 3.62966 0.999145 4.54262 1H21.1619C22.076 1 22.8588 1.252 23.5102 1.756C24.1617 2.26 24.4869 2.86514 24.4858 3.57143V16.4286C24.4858 17.1357 24.1601 17.7413 23.5086 18.2453C22.8571 18.7493 22.0749 19.0009 21.1619 19H4.54262ZM29.6619 9C29.1911 9 28.7961 8.87657 28.477 8.62971C28.1579 8.38286 27.9989 8.07771 28 7.71429V2.28572C28 1.92144 28.1595 1.61587 28.4786 1.36901C28.7977 1.12215 29.1922 0.999151 29.6619 1.00001L35.3381 1.00001C35.809 1.00001 36.2039 1.12344 36.523 1.37029C36.8421 1.61715 37.0011 1.92229 37 2.28572V7.71429C37 8.07857 36.8405 8.38414 36.5214 8.631C36.2023 8.87786 35.8078 9.00086 35.3381 9L29.6619 9ZM6.20455 13.8571H19.5L15.1374 9.35714L12.0213 12.5714L9.73615 10.225L6.20455 13.8571ZM29.6619 19C29.1911 19 28.7961 18.8766 28.477 18.6297C28.1579 18.3829 27.9989 18.0777 28 17.7143V12.2857C28 11.9214 28.1595 11.6159 28.4786 11.369C28.7977 11.1221 29.1922 10.9991 29.6619 11H35.3512C35.8221 11 36.217 11.1234 36.5361 11.3703C36.8552 11.6171 37.0142 11.9223 37.0131 12.2857V17.7143C37.0131 18.0786 36.8536 18.3841 36.5345 18.631C36.2154 18.8779 35.821 19.0009 35.3512 19H29.6619Z" fill="#303030"/>
    <rect x="31" y="14" width="3" height="2" fill="white"/>
    <rect x="31" y="4" width="3" height="2" fill="white"/>
    <path d="M9 8L4 14H21L16 5L12 11L9 8Z" fill="white"/>
    </svg>
    