<?xml version="1.0" standalone="no"?>
<!DOCTYPE svg PUBLIC "-//W3C//DTD SVG 20010904//EN"
 "http://www.w3.org/TR/2001/REC-SVG-20010904/DTD/svg10.dtd">
<svg version="1.0" xmlns="http://www.w3.org/2000/svg"
 width="256.000000pt" height="256.000000pt" viewBox="0 0 256.000000 256.000000"
 preserveAspectRatio="xMidYMid meet">
<metadata>
Created by potrace 1.14, written by Peter Selinger 2001-2017
</metadata>
<g transform="translate(0.000000,256.000000) scale(0.100000,-0.100000)"
fill="#000000" stroke="none">
<path d="M536 1964 c-64 -20 -102 -49 -133 -102 l-26 -44 0 -526 c0 -290 3
-541 7 -558 9 -39 62 -96 118 -126 l43 -23 710 -3 c490 -2 724 1 754 8 58 15
124 61 152 107 l24 38 0 545 0 545 -23 36 c-23 38 -66 74 -117 99 -46 23
-1437 26 -1509 4z"/>
</g>
</svg>
